#N canvas 681 594 450 300 10;
#X obj 75 75 tgl 15 0 empty empty empty 17 7 0 10 -262144 -1 -1 0 1
;
#X obj 123 75 tgl 15 0 empty empty empty 17 7 0 10 -262144 -1 -1 0
1;
#X obj 171 75 tgl 15 0 empty empty empty 17 7 0 10 -262144 -1 -1 0
1;
#X obj 218 75 tgl 15 0 empty empty empty 17 7 0 10 -262144 -1 -1 0
1;
#X obj 103 174 bondo 4;
#X obj 157 14 pack;
#X obj 19 133 bng 15 250 50 0 empty empty empty 17 7 0 10 -262144 -1
-1;
#X obj 89 224 print;
#X msg 63 120 bass_1;
#X msg 184 120 bass_3;
#X msg 122 121 bass_2;
#X msg 248 124 bass_4;
#X connect 0 0 8 0;
#X connect 1 0 10 0;
#X connect 2 0 9 0;
#X connect 3 0 11 0;
#X connect 4 0 7 0;
#X connect 4 1 7 0;
#X connect 4 2 7 0;
#X connect 4 3 7 0;
#X connect 6 0 4 0;
#X connect 8 0 4 0;
#X connect 9 0 4 2;
#X connect 10 0 4 1;
#X connect 11 0 4 3;
