#N canvas 0 0 900 900 10;
#X obj 10 10 soundfiler;
#X obj 10 40 loadbang;
#X obj 500 10 table bass_1;
#X msg 150 10 read -resize ../pd/clips/bass_1.wav bass_1;
#X obj 500 40 table bass_2;
#X msg 150 40 read -resize ../pd/clips/bass_2.wav bass_2;
#X obj 500 70 table bass_3;
#X msg 150 70 read -resize ../pd/clips/bass_3.wav bass_3;
#X obj 500 100 table bass_4;
#X msg 150 100 read -resize ../pd/clips/bass_4.wav bass_4;
#X obj 500 130 table bass_5;
#X msg 150 130 read -resize ../pd/clips/bass_5.wav bass_5;
#X obj 500 160 table bass_6;
#X msg 150 160 read -resize ../pd/clips/bass_6.wav bass_6;
#X obj 500 190 table bass_7;
#X msg 150 190 read -resize ../pd/clips/bass_7.wav bass_7;
#X obj 500 220 table bass_8;
#X msg 150 220 read -resize ../pd/clips/bass_8.wav bass_8;
#X obj 500 250 table drums_1;
#X msg 150 250 read -resize ../pd/clips/drums_1.wav drums_1;
#X obj 500 280 table drums_2;
#X msg 150 280 read -resize ../pd/clips/drums_2.wav drums_2;
#X obj 500 310 table drums_3;
#X msg 150 310 read -resize ../pd/clips/drums_3.wav drums_3;
#X obj 500 340 table drums_4;
#X msg 150 340 read -resize ../pd/clips/drums_4.wav drums_4;
#X obj 500 370 table drums_5;
#X msg 150 370 read -resize ../pd/clips/drums_5.wav drums_5;
#X obj 500 400 table drums_6;
#X msg 150 400 read -resize ../pd/clips/drums_6.wav drums_6;
#X obj 500 430 table drums_7;
#X msg 150 430 read -resize ../pd/clips/drums_7.wav drums_7;
#X obj 500 460 table drums_8;
#X msg 150 460 read -resize ../pd/clips/drums_8.wav drums_8;
#X obj 500 490 table piano_1;
#X msg 150 490 read -resize ../pd/clips/piano_1.wav piano_1;
#X obj 500 520 table piano_2;
#X msg 150 520 read -resize ../pd/clips/piano_2.wav piano_2;
#X obj 500 550 table piano_3;
#X msg 150 550 read -resize ../pd/clips/piano_3.wav piano_3;
#X obj 500 580 table piano_4;
#X msg 150 580 read -resize ../pd/clips/piano_4.wav piano_4;
#X obj 500 610 table piano_5;
#X msg 150 610 read -resize ../pd/clips/piano_5.wav piano_5;
#X obj 500 640 table piano_6;
#X msg 150 640 read -resize ../pd/clips/piano_6.wav piano_6;
#X obj 500 670 table piano_7;
#X msg 150 670 read -resize ../pd/clips/piano_7.wav piano_7;
#X obj 500 700 table piano_8;
#X msg 150 700 read -resize ../pd/clips/piano_8.wav piano_8;
#X obj 500 730 table trumpets_1;
#X msg 150 730 read -resize ../pd/clips/trumpets_1.wav trumpets_1;
#X obj 500 760 table trumpets_2;
#X msg 150 760 read -resize ../pd/clips/trumpets_2.wav trumpets_2;
#X obj 500 790 table trumpets_3;
#X msg 150 790 read -resize ../pd/clips/trumpets_3.wav trumpets_3;
#X obj 500 820 table trumpets_4;
#X msg 150 820 read -resize ../pd/clips/trumpets_4.wav trumpets_4;
#X obj 500 850 table trumpets_5;
#X msg 150 850 read -resize ../pd/clips/trumpets_5.wav trumpets_5;
#X obj 500 880 table trumpets_6;
#X msg 150 880 read -resize ../pd/clips/trumpets_6.wav trumpets_6;
#X obj 500 910 table trumpets_7;
#X msg 150 910 read -resize ../pd/clips/trumpets_7.wav trumpets_7;
#X obj 500 940 table trumpets_8;
#X msg 150 940 read -resize ../pd/clips/trumpets_8.wav trumpets_8;
#X connect 3 0 0 0;
#X connect 1 0 3 0;
#X connect 5 0 0 0;
#X connect 1 0 5 0;
#X connect 7 0 0 0;
#X connect 1 0 7 0;
#X connect 9 0 0 0;
#X connect 1 0 9 0;
#X connect 11 0 0 0;
#X connect 1 0 11 0;
#X connect 13 0 0 0;
#X connect 1 0 13 0;
#X connect 15 0 0 0;
#X connect 1 0 15 0;
#X connect 17 0 0 0;
#X connect 1 0 17 0;
#X connect 19 0 0 0;
#X connect 1 0 19 0;
#X connect 21 0 0 0;
#X connect 1 0 21 0;
#X connect 23 0 0 0;
#X connect 1 0 23 0;
#X connect 25 0 0 0;
#X connect 1 0 25 0;
#X connect 27 0 0 0;
#X connect 1 0 27 0;
#X connect 29 0 0 0;
#X connect 1 0 29 0;
#X connect 31 0 0 0;
#X connect 1 0 31 0;
#X connect 33 0 0 0;
#X connect 1 0 33 0;
#X connect 35 0 0 0;
#X connect 1 0 35 0;
#X connect 37 0 0 0;
#X connect 1 0 37 0;
#X connect 39 0 0 0;
#X connect 1 0 39 0;
#X connect 41 0 0 0;
#X connect 1 0 41 0;
#X connect 43 0 0 0;
#X connect 1 0 43 0;
#X connect 45 0 0 0;
#X connect 1 0 45 0;
#X connect 47 0 0 0;
#X connect 1 0 47 0;
#X connect 49 0 0 0;
#X connect 1 0 49 0;
#X connect 51 0 0 0;
#X connect 1 0 51 0;
#X connect 53 0 0 0;
#X connect 1 0 53 0;
#X connect 55 0 0 0;
#X connect 1 0 55 0;
#X connect 57 0 0 0;
#X connect 1 0 57 0;
#X connect 59 0 0 0;
#X connect 1 0 59 0;
#X connect 61 0 0 0;
#X connect 1 0 61 0;
#X connect 63 0 0 0;
#X connect 1 0 63 0;
#X connect 65 0 0 0;
#X connect 1 0 65 0;
