#N canvas 0 0 900 900 10;
#X obj 10 10 soundfiler;
#X obj 10 40 loadbang;
#X obj 500 10 table drums_1;
#X msg 150 10 read -resize ../pd/clips/drums_1.wav drums_1;
#X obj 500 40 table drums_2;
#X msg 150 40 read -resize ../pd/clips/drums_2.wav drums_2;
#X obj 500 70 table drums_3;
#X msg 150 70 read -resize ../pd/clips/drums_3.wav drums_3;
#X obj 500 100 table drums_4;
#X msg 150 100 read -resize ../pd/clips/drums_4.wav drums_4;
#X obj 500 130 table drums_5;
#X msg 150 130 read -resize ../pd/clips/drums_5.wav drums_5;
#X obj 500 160 table drums_6;
#X msg 150 160 read -resize ../pd/clips/drums_6.wav drums_6;
#X obj 500 190 table lead_1;
#X msg 150 190 read -resize ../pd/clips/lead_1.wav lead_1;
#X obj 500 220 table lead_2;
#X msg 150 220 read -resize ../pd/clips/lead_2.wav lead_2;
#X obj 500 250 table lead_3;
#X msg 150 250 read -resize ../pd/clips/lead_3.wav lead_3;
#X obj 500 280 table lead_4;
#X msg 150 280 read -resize ../pd/clips/lead_4.wav lead_4;
#X obj 500 310 table lead_5;
#X msg 150 310 read -resize ../pd/clips/lead_5.wav lead_5;
#X obj 500 340 table lead_6;
#X msg 150 340 read -resize ../pd/clips/lead_6.wav lead_6;
#X obj 500 370 table lead_7;
#X msg 150 370 read -resize ../pd/clips/lead_7.wav lead_7;
#X obj 500 400 table piano_1;
#X msg 150 400 read -resize ../pd/clips/piano_1.wav piano_1;
#X obj 500 430 table piano_2;
#X msg 150 430 read -resize ../pd/clips/piano_2.wav piano_2;
#X obj 500 460 table piano_3;
#X msg 150 460 read -resize ../pd/clips/piano_3.wav piano_3;
#X obj 500 490 table piano_4;
#X msg 150 490 read -resize ../pd/clips/piano_4.wav piano_4;
#X obj 500 520 table piano_5;
#X msg 150 520 read -resize ../pd/clips/piano_5.wav piano_5;
#X obj 500 550 table piano_6;
#X msg 150 550 read -resize ../pd/clips/piano_6.wav piano_6;
#X obj 500 580 table piano_7;
#X msg 150 580 read -resize ../pd/clips/piano_7.wav piano_7;
#X obj 500 610 table pluck_1;
#X msg 150 610 read -resize ../pd/clips/pluck_1.wav pluck_1;
#X obj 500 640 table pluck_2;
#X msg 150 640 read -resize ../pd/clips/pluck_2.wav pluck_2;
#X obj 500 670 table pluck_3;
#X msg 150 670 read -resize ../pd/clips/pluck_3.wav pluck_3;
#X obj 500 700 table pluck_4;
#X msg 150 700 read -resize ../pd/clips/pluck_4.wav pluck_4;
#X obj 500 730 table pluck_5;
#X msg 150 730 read -resize ../pd/clips/pluck_5.wav pluck_5;
#X obj 500 760 table pluck_6;
#X msg 150 760 read -resize ../pd/clips/pluck_6.wav pluck_6;
#X obj 500 790 table pluck_7;
#X msg 150 790 read -resize ../pd/clips/pluck_7.wav pluck_7;
#X connect 3 0 0 0;
#X connect 1 0 3 0;
#X connect 5 0 0 0;
#X connect 1 0 5 0;
#X connect 7 0 0 0;
#X connect 1 0 7 0;
#X connect 9 0 0 0;
#X connect 1 0 9 0;
#X connect 11 0 0 0;
#X connect 1 0 11 0;
#X connect 13 0 0 0;
#X connect 1 0 13 0;
#X connect 15 0 0 0;
#X connect 1 0 15 0;
#X connect 17 0 0 0;
#X connect 1 0 17 0;
#X connect 19 0 0 0;
#X connect 1 0 19 0;
#X connect 21 0 0 0;
#X connect 1 0 21 0;
#X connect 23 0 0 0;
#X connect 1 0 23 0;
#X connect 25 0 0 0;
#X connect 1 0 25 0;
#X connect 27 0 0 0;
#X connect 1 0 27 0;
#X connect 29 0 0 0;
#X connect 1 0 29 0;
#X connect 31 0 0 0;
#X connect 1 0 31 0;
#X connect 33 0 0 0;
#X connect 1 0 33 0;
#X connect 35 0 0 0;
#X connect 1 0 35 0;
#X connect 37 0 0 0;
#X connect 1 0 37 0;
#X connect 39 0 0 0;
#X connect 1 0 39 0;
#X connect 41 0 0 0;
#X connect 1 0 41 0;
#X connect 43 0 0 0;
#X connect 1 0 43 0;
#X connect 45 0 0 0;
#X connect 1 0 45 0;
#X connect 47 0 0 0;
#X connect 1 0 47 0;
#X connect 49 0 0 0;
#X connect 1 0 49 0;
#X connect 51 0 0 0;
#X connect 1 0 51 0;
#X connect 53 0 0 0;
#X connect 1 0 53 0;
#X connect 55 0 0 0;
#X connect 1 0 55 0;
