#N canvas 181 121 600 970 10;
#X obj 10 10 soundfiler;
#X obj 10 40 loadbang;
#X obj 500 10 table track1;
#X msg 150 10 read -resize clips/bass_1.wav track1;
#X obj 500 40 table track2;
#X msg 150 40 read -resize clips/bass_2.wav track2;
#X obj 500 70 table track3;
#X msg 150 70 read -resize clips/bass_3.wav track3;
#X obj 500 100 table track4;
#X msg 150 100 read -resize clips/bass_4.wav track4;
#X obj 500 130 table track5;
#X msg 150 130 read -resize clips/bass_5.wav track5;
#X obj 500 160 table track6;
#X msg 150 160 read -resize clips/bass_6.wav track6;
#X obj 500 190 table track7;
#X msg 150 190 read -resize clips/bass_7.wav track7;
#X obj 500 220 table track8;
#X msg 150 220 read -resize clips/bass_8.wav track8;
#X obj 500 250 table track9;
#X msg 150 250 read -resize clips/drums_1.wav track9;
#X obj 500 280 table track10;
#X msg 150 280 read -resize clips/drums_2.wav track10;
#X obj 500 310 table track11;
#X msg 150 310 read -resize clips/drums_3.wav track11;
#X obj 500 340 table track12;
#X msg 150 340 read -resize clips/drums_4.wav track12;
#X obj 500 370 table track13;
#X msg 150 370 read -resize clips/drums_5.wav track13;
#X obj 500 400 table track14;
#X msg 150 400 read -resize clips/drums_6.wav track14;
#X obj 500 430 table track15;
#X msg 150 430 read -resize clips/drums_7.wav track15;
#X obj 500 460 table track16;
#X msg 150 460 read -resize clips/drums_8.wav track16;
#X obj 500 490 table track17;
#X msg 150 490 read -resize clips/piano_1.wav track17;
#X obj 500 520 table track18;
#X msg 150 520 read -resize clips/piano_2.wav track18;
#X obj 500 550 table track19;
#X msg 150 550 read -resize clips/piano_3.wav track19;
#X obj 500 580 table track20;
#X msg 150 580 read -resize clips/piano_4.wav track20;
#X obj 500 610 table track21;
#X msg 150 610 read -resize clips/piano_5.wav track21;
#X obj 500 640 table track22;
#X msg 150 640 read -resize clips/piano_6.wav track22;
#X obj 500 670 table track23;
#X msg 150 670 read -resize clips/piano_7.wav track23;
#X obj 500 700 table track24;
#X msg 150 700 read -resize clips/piano_8.wav track24;
#X obj 500 730 table track25;
#X msg 150 730 read -resize clips/trumpets_1.wav track25;
#X obj 500 760 table track26;
#X msg 150 760 read -resize clips/trumpets_2.wav track26;
#X obj 500 790 table track27;
#X msg 150 790 read -resize clips/trumpets_3.wav track27;
#X obj 500 820 table track28;
#X msg 150 820 read -resize clips/trumpets_4.wav track28;
#X obj 500 850 table track29;
#X msg 150 850 read -resize clips/trumpets_5.wav track29;
#X obj 500 880 table track30;
#X msg 150 880 read -resize clips/trumpets_6.wav track30;
#X obj 500 910 table track31;
#X msg 150 910 read -resize clips/trumpets_7.wav track31;
#X obj 500 940 table track32;
#X msg 150 940 read -resize clips/trumpets_8.wav track32;
#X connect 1 0 3 0;
#X connect 1 0 5 0;
#X connect 1 0 7 0;
#X connect 1 0 9 0;
#X connect 1 0 11 0;
#X connect 1 0 13 0;
#X connect 1 0 15 0;
#X connect 1 0 17 0;
#X connect 1 0 19 0;
#X connect 1 0 21 0;
#X connect 1 0 23 0;
#X connect 1 0 25 0;
#X connect 1 0 27 0;
#X connect 1 0 29 0;
#X connect 1 0 31 0;
#X connect 1 0 33 0;
#X connect 1 0 35 0;
#X connect 1 0 37 0;
#X connect 1 0 39 0;
#X connect 1 0 41 0;
#X connect 1 0 43 0;
#X connect 1 0 45 0;
#X connect 1 0 47 0;
#X connect 1 0 49 0;
#X connect 1 0 51 0;
#X connect 1 0 53 0;
#X connect 1 0 55 0;
#X connect 1 0 57 0;
#X connect 1 0 59 0;
#X connect 1 0 61 0;
#X connect 1 0 63 0;
#X connect 1 0 65 0;
#X connect 3 0 0 0;
#X connect 5 0 0 0;
#X connect 7 0 0 0;
#X connect 9 0 0 0;
#X connect 11 0 0 0;
#X connect 13 0 0 0;
#X connect 15 0 0 0;
#X connect 17 0 0 0;
#X connect 19 0 0 0;
#X connect 21 0 0 0;
#X connect 23 0 0 0;
#X connect 25 0 0 0;
#X connect 27 0 0 0;
#X connect 29 0 0 0;
#X connect 31 0 0 0;
#X connect 33 0 0 0;
#X connect 35 0 0 0;
#X connect 37 0 0 0;
#X connect 39 0 0 0;
#X connect 41 0 0 0;
#X connect 43 0 0 0;
#X connect 45 0 0 0;
#X connect 47 0 0 0;
#X connect 49 0 0 0;
#X connect 51 0 0 0;
#X connect 53 0 0 0;
#X connect 55 0 0 0;
#X connect 57 0 0 0;
#X connect 59 0 0 0;
#X connect 61 0 0 0;
#X connect 63 0 0 0;
#X connect 65 0 0 0;
