#N canvas 800 127 530 310 10;
#X declare -lib mrpeach;
#X obj 60 131 import mrpeach;
#X obj 10 37 packOSC;
#X msg 60 225 connect 127.0.0.1 3000;
#X msg 70 252 disconnect;
#X obj 60 279 udpsend;
#X obj 300 10 udpreceive 3000;
#X obj 300 37 unpackOSC;
#X obj 300 64 routeOSC /playclip;
#X obj 300 91 unpack s s s s;
#X msg 10 10 send /playclip track1 track9 track17 track25;
#X obj 330 235 dac~;
#X obj 122 158 clips;
#X obj 390 262 packOSC;
#X msg 390 235 send /score finished;
#X obj 220 138 playclip;
#X obj 300 138 playclip;
#X obj 380 138 playclip;
#X obj 460 138 playclip;
#X obj 60 158 loadbang;
#X msg 70 185 \; pd dsp 1;
#X obj 340 195 *~ 1;
#X connect 1 0 4 0;
#X connect 2 0 4 0;
#X connect 3 0 4 0;
#X connect 5 0 6 0;
#X connect 6 0 7 0;
#X connect 7 0 8 0;
#X connect 8 0 14 0;
#X connect 8 1 15 0;
#X connect 8 2 16 0;
#X connect 8 3 17 0;
#X connect 9 0 1 0;
#X connect 12 0 4 0;
#X connect 13 0 12 0;
#X connect 14 0 20 0;
#X connect 15 0 20 0;
#X connect 16 0 20 0;
#X connect 17 0 20 0;
#X connect 17 1 13 0;
#X connect 18 0 2 0;
#X connect 18 0 19 0;
#X connect 20 0 10 0;
#X connect 20 0 10 1;
